<svg width="180" height="48" viewBox="0 0 180 48" fill="none" xmlns="http://www.w3.org/2000/svg">
<path d="M0.648438 29.5781H3.95312V6.91406H0.648438V0.46875H15.2734L25.75 26.1094L35.4766 0.46875H50.3125V6.91406H47.0078V29.5781H50.2656V36H36.9766V29.5781H39.4141V9.14062L28.7734 35.5781H22.1875L11.3594 9.84375V29.5781H14.0078V36H0.648438V29.5781ZM54.6719 23.7656C54.6719 22 54.9922 20.3438 55.6328 18.7969C56.2734 17.25 57.1641 15.8984 58.3047 14.7422C59.4453 13.5859 60.8047 12.6719 62.3828 12C63.9609 11.3281 65.6953 10.9922 67.5859 10.9922C69.4766 10.9922 71.2109 11.3281 72.7891 12C74.3828 12.6719 75.75 13.5859 76.8906 14.7422C78.0312 15.8984 78.9141 17.25 79.5391 18.7969C80.1797 20.3438 80.5 22 80.5 23.7656C80.5 25.5312 80.1875 27.1953 79.5625 28.7578C78.9531 30.3047 78.0781 31.6641 76.9375 32.8359C75.8125 33.9922 74.4531 34.9062 72.8594 35.5781C71.2812 36.25 69.5234 36.5859 67.5859 36.5859C65.6328 36.5859 63.8594 36.25 62.2656 35.5781C60.6875 34.9062 59.3359 33.9922 58.2109 32.8359C57.0859 31.6797 56.2109 30.3281 55.5859 28.7812C54.9766 27.2188 54.6719 25.5469 54.6719 23.7656ZM61.6797 23.7656C61.6797 24.6875 61.8359 25.5391 62.1484 26.3203C62.4609 27.0859 62.8828 27.75 63.4141 28.3125C63.9609 28.875 64.5859 29.3125 65.2891 29.625C66.0078 29.9375 66.7734 30.0938 67.5859 30.0938C68.4141 30.0938 69.1797 29.9453 69.8828 29.6484C70.6016 29.3359 71.2188 28.8984 71.7344 28.3359C72.2656 27.7734 72.6797 27.1094 72.9766 26.3438C73.2734 25.5625 73.4219 24.7031 73.4219 23.7656C73.4219 22.7969 73.2734 21.9219 72.9766 21.1406C72.6797 20.3594 72.2656 19.6953 71.7344 19.1484C71.2188 18.6016 70.6016 18.1875 69.8828 17.9062C69.1797 17.6094 68.4141 17.4688 67.5859 17.4844C66.7734 17.4688 66.0078 17.6094 65.2891 17.9062C64.5859 18.1875 63.9609 18.6016 63.4141 19.1484C62.8828 19.6953 62.4609 20.3594 62.1484 21.1406C61.8359 21.9219 61.6797 22.7969 61.6797 23.7656ZM83.1484 11.7188H95.8281V18.1406H92.875L96.8359 28.5703L100.656 18.1406H98.0312V11.7188H110.711V18.1406H107.477L100.234 36.0938H93.0859L85.8438 18.1406H83.1484V11.7188ZM112.867 11.7188H124.773V18.1406H122.898L126.391 27.2344L129.977 18.1406H127.891V11.7188H139.797V18.1406H137.148L127.75 40.6172H131.922V47.0391H116.852V40.6172H121.094L122.922 36L115.328 18.1406H112.867V11.7188ZM148.961 25.3828L149.031 26.1094C149.203 26.8125 149.492 27.4297 149.898 27.9609C150.32 28.4922 150.812 28.9375 151.375 29.2969C151.938 29.6562 152.562 29.9297 153.25 30.1172C153.938 30.2891 154.633 30.375 155.336 30.375C156.039 30.375 156.703 30.3359 157.328 30.2578C157.969 30.1641 158.586 30.0469 159.18 29.9062C159.773 29.75 160.352 29.5781 160.914 29.3906C161.477 29.1875 162.047 28.9766 162.625 28.7578L165.203 33.5625C164.312 34.1094 163.492 34.5781 162.742 34.9688C162.008 35.3438 161.266 35.6562 160.516 35.9062C159.766 36.1562 158.969 36.3359 158.125 36.4453C157.281 36.5703 156.297 36.6328 155.172 36.6328C153.062 36.6328 151.188 36.2891 149.547 35.6016C147.906 34.8984 146.523 33.9531 145.398 32.7656C144.289 31.5781 143.438 30.1875 142.844 28.5938C142.266 27 141.977 25.3125 141.977 23.5312C141.977 21.75 142.281 20.0781 142.891 18.5156C143.516 16.9531 144.391 15.5938 145.516 14.4375C146.641 13.2656 147.984 12.3438 149.547 11.6719C151.109 11 152.844 10.6641 154.75 10.6641C156.656 10.6641 158.344 10.9844 159.812 11.625C161.297 12.25 162.547 13.125 163.562 14.25C164.578 15.3594 165.359 16.6719 165.906 18.1875C166.453 19.6875 166.75 21.3047 166.797 23.0391C166.844 23.4297 166.867 23.8203 166.867 24.2109C166.883 24.5859 166.875 24.9766 166.844 25.3828H148.961ZM154.562 16.5234C153.688 16.5234 152.938 16.6328 152.312 16.8516C151.703 17.0547 151.188 17.3438 150.766 17.7188C150.344 18.0781 150.008 18.4922 149.758 18.9609C149.508 19.4297 149.312 19.9219 149.172 20.4375H159.32C159.211 19.9062 159.055 19.4062 158.852 18.9375C158.648 18.4688 158.367 18.0547 158.008 17.6953C157.648 17.3359 157.188 17.0547 156.625 16.8516C156.078 16.6328 155.391 16.5234 154.562 16.5234Z" fill="white"/>
<path d="M170.219 32.2031C170.219 31.5781 170.328 30.9922 170.547 30.4453C170.781 29.8984 171.102 29.4141 171.508 28.9922C171.93 28.5703 172.422 28.2422 172.984 28.0078C173.547 27.7578 174.148 27.6328 174.789 27.6328C175.398 27.6328 175.977 27.7578 176.523 28.0078C177.086 28.2422 177.57 28.5703 177.977 28.9922C178.398 29.3984 178.727 29.8828 178.961 30.4453C179.195 31.0078 179.312 31.5938 179.312 32.2031C179.312 32.8281 179.188 33.4219 178.938 33.9844C178.703 34.5469 178.383 35.0312 177.977 35.4375C177.57 35.8438 177.094 36.1641 176.547 36.3984C176 36.6484 175.414 36.7734 174.789 36.7734C174.133 36.7734 173.523 36.6484 172.961 36.3984C172.414 36.1641 171.93 35.8438 171.508 35.4375C171.102 35.0312 170.781 34.5547 170.547 34.0078C170.328 33.4453 170.219 32.8438 170.219 32.2031Z" fill="#2AEBB1"/>
</svg>
